<svg width="128" height="128" viewBox="0 0 128 128" fill="none" xmlns="http://www.w3.org/2000/svg">
<rect width="128" height="128" fill="#1CABE2" fill-opacity="0.59"/>
<path d="M67.5 27.5C67.5 30.8137 64.8137 33.5 61.5 33.5C58.1863 33.5 55.5 30.8137 55.5 27.5C55.5 24.1863 58.1863 21.5 61.5 21.5C64.8137 21.5 67.5 24.1863 67.5 27.5Z" fill="#9E1C4D"/>
<path d="M38 94C38 86.8203 43.8203 81 51 81H78C85.1797 81 91 86.8203 91 94V107C91 108.657 89.6569 110 88 110H41C39.3431 110 38 108.657 38 107V94Z" fill="#D9D9D9"/>
<rect x="12" y="45" width="7" height="18" rx="1" fill="#D9D9D9"/>
<rect x="30" y="91" width="7" height="18" rx="1" fill="#D9D9D9"/>
<rect x="92" y="92" width="7" height="18" rx="1" fill="#D9D9D9"/>
<rect x="108" y="45" width="7" height="18" rx="1" fill="#D9D9D9"/>
<rect x="20" y="28" width="87" height="52" rx="9" fill="#D9D9D9"/>
<rect x="31" y="35" width="67" height="35" rx="3" fill="white"/>
<rect x="40" y="45" width="6" height="11" rx="2" fill="#9E1C4D"/>
<rect x="81" y="45" width="6" height="11" rx="2" fill="#9E1C4D"/>
</svg>
