<svg width="128" height="128" viewBox="0 0 128 128" fill="none" xmlns="http://www.w3.org/2000/svg">
<rect width="128" height="128" fill="#1CABE2" fill-opacity="0.59"/>
<path d="M69.5 27.5C69.5 30.8137 66.8137 33.5 63.5 33.5C60.1863 33.5 57.5 30.8137 57.5 27.5C57.5 24.1863 60.1863 21.5 63.5 21.5C66.8137 21.5 69.5 24.1863 69.5 27.5Z" fill="#9E1C4D"/>
<path d="M37 94C37 86.8203 42.8203 81 50 81H78C85.1797 81 91 86.8203 91 94V107C91 108.657 89.6569 110 88 110H40C38.3431 110 37 108.657 37 107V94Z" fill="#D9D9D9"/>
<rect x="13" y="45" width="7" height="18" rx="1" fill="#D9D9D9"/>
<rect x="29" y="91" width="7" height="18" rx="1" fill="#D9D9D9"/>
<rect x="92" y="92" width="7" height="18" rx="1" fill="#D9D9D9"/>
<rect x="108" y="45" width="7" height="18" rx="1" fill="#D9D9D9"/>
<rect x="21" y="28" width="86" height="52" rx="9" fill="#D9D9D9"/>
<rect x="28" y="36" width="70" height="36" rx="3" fill="white"/>
<rect x="40" y="45" width="6" height="11" rx="2" fill="#9E1C4D"/>
<rect x="81" y="45" width="6" height="11" rx="2" fill="#9E1C4D"/>
</svg>
